<svg width="32" height="33" viewBox="0 0 32 33" fill="none" xmlns="http://www.w3.org/2000/svg">
    <g id="Group 1">
        <path id="Vector" d="M17.0559 27.4229L24.0171 23.5553L25.9956 26.8216L19.0319 30.6892L17.0559 27.4229Z" fill="url(#paint0_linear_7750_908)"/>
        <path id="Vector_2" d="M0.0168457 19.8801V12.1378L3.94188 12.1213V19.8613L0.0168457 19.8801Z" fill="url(#paint1_linear_7750_908)"/>
        <path id="Vector_3" d="M23.5385 9.27056L16.6262 5.32041L18.6144 2.05888L25.5243 6.01139L23.5385 9.27056Z" fill="url(#paint2_linear_7750_908)"/>
        <path id="Vector_4" d="M10.1083 8.66194C12.4002 6.09847 15.7914 4.4736 19.5793 4.4736C20.4021 4.4736 21.2076 4.55142 21.9863 4.69763C19.6944 2.12945 16.2983 0.499861 12.5055 0.499861C5.603 0.499861 0.00805664 5.88858 0.00805664 12.5366C0.00805664 13.928 0.255361 15.2628 0.705894 16.5056C2.15299 12.5154 5.71808 9.48263 10.1059 8.66194H10.1083Z" fill="#007DFF"/>
        <path id="Vector_5" d="M21.9092 4.72206C23.7872 6.82802 24.9258 9.56601 24.9258 12.5587C24.9258 13.9501 24.6785 15.2849 24.228 16.5277C24.6785 17.7705 24.9258 19.1053 24.9258 20.4967C24.9258 23.4965 23.7848 26.2368 21.8994 28.3452C27.6535 27.2674 31.9997 22.3904 31.9997 16.5324C31.9997 10.6744 27.6584 5.80216 21.9092 4.72206Z" fill="#1BD2FF"/>
        <path id="Vector_6" d="M19.5715 28.5361C15.7787 28.5361 12.3826 26.9065 10.0907 24.3359C5.70782 23.5129 2.14518 20.4825 0.698082 16.4946C0.247548 17.7374 0.000244141 19.0722 0.000244141 20.4636C0.000244141 27.1116 5.59519 32.5004 12.4977 32.5004C16.2856 32.5004 19.6768 30.8755 21.9687 28.312C21.1925 28.4582 20.3918 28.5361 19.5715 28.5361Z" fill="#313CFF"/>
        <path id="Vector_7" d="M0.709473 16.505C2.15657 20.4929 5.71921 23.5233 10.1021 24.3463C8.22408 22.2404 7.08551 19.5024 7.08551 16.5097C7.08551 13.517 8.22653 10.7696 10.1119 8.66128C5.72411 9.48197 2.15902 12.5147 0.711921 16.505H0.709473Z" fill="#215DFF"/>
        <path id="Vector_8" d="M24.3017 16.4877C22.5975 11.7923 17.96 8.41996 12.5046 8.41996C11.6843 8.41996 10.8837 8.49779 10.1075 8.644C8.22453 10.7523 7.08105 13.4927 7.08105 16.4924C7.08105 19.4922 8.21963 22.2231 10.0977 24.3291C10.8763 24.4753 11.6794 24.5531 12.5046 24.5531C17.9624 24.5531 22.6 21.1831 24.3017 16.4853V16.4877Z" fill="#2C73FF"/>
        <path id="Vector_9" d="M12.4806 8.43574C17.9385 8.43574 22.576 11.8058 24.2778 16.5035C24.7283 15.2607 24.9756 13.9259 24.9756 12.5345C24.9756 9.53943 23.837 6.8038 21.959 4.69784C21.1803 4.55162 20.3772 4.4738 19.5521 4.4738C15.7641 4.4738 12.3729 6.09867 10.0811 8.66214C10.8572 8.51593 11.6579 8.4381 12.4782 8.4381L12.4806 8.43574Z" fill="#00A8FF"/>
        <path id="Vector_10" d="M21.9565 28.3016C23.8395 26.1933 24.983 23.4529 24.983 20.4532C24.983 19.0618 24.7356 17.727 24.2851 16.4842C22.5809 21.1795 17.9434 24.5519 12.488 24.5519C11.6653 24.5519 10.8597 24.4741 10.0811 24.3279C12.3729 26.8961 15.769 28.528 19.5619 28.528C20.3821 28.528 21.1828 28.4502 21.959 28.304L21.9565 28.3016Z" fill="#2E8AFF"/>
        <path id="Vector_11" d="M12.4252 13.1202L14.2812 19.9616C14.3351 20.1644 14.6313 20.181 14.7097 19.9852L15.7405 17.4595C15.7724 17.3793 15.8532 17.3251 15.9438 17.3227L18.7424 17.2472C18.9604 17.2425 19.0436 16.9713 18.8624 16.8534L12.7704 12.8891C12.599 12.7759 12.3738 12.9292 12.4252 13.1226V13.1202Z" fill="white"/>
    </g>
    <defs>
        <linearGradient id="paint0_linear_7750_908" x1="18.0189" y1="29.0443" x2="24.9941" y2="25.0304" gradientUnits="userSpaceOnUse">
            <stop stop-color="#313CFF"/>
            <stop offset="1" stop-color="#1BD2FF"/>
        </linearGradient>
        <linearGradient id="paint1_linear_7750_908" x1="1.93953" y1="12.1208" x2="1.93967" y2="19.879" gradientUnits="userSpaceOnUse">
            <stop stop-color="#007DFF"/>
            <stop offset="1" stop-color="#313CFF"/>
        </linearGradient>
        <linearGradient id="paint2_linear_7750_908" x1="16.6262" y1="5.66472" x2="25.5243" y2="5.66472" gradientUnits="userSpaceOnUse">
            <stop stop-color="#007DFF"/>
            <stop offset="1" stop-color="#1BD2FF"/>
        </linearGradient>
    </defs>
</svg>
